<svg width="43" height="43" viewBox="0 0 43 43" fill="none" xmlns="http://www.w3.org/2000/svg">
<g id="Frame" clip-path="url(#clip0_1242_5247)">
<g id="Group 2199">
<g id="Ellipse 185">
<g id="Vector">
<path d="M21.5 42C33.098 42 42.5 32.8218 42.5 21.5C42.5 10.1782 33.098 1 21.5 1C9.90202 1 0.5 10.1782 0.5 21.5C0.5 32.8218 9.90202 42 21.5 42Z" fill="#0F6EFF"/>
<path d="M21.5 42C33.098 42 42.5 32.8218 42.5 21.5C42.5 10.1782 33.098 1 21.5 1C9.90202 1 0.5 10.1782 0.5 21.5C0.5 32.8218 9.90202 42 21.5 42Z" fill="url(#paint0_linear_1242_5247)"/>
<path d="M21.5 42C33.098 42 42.5 32.8218 42.5 21.5C42.5 10.1782 33.098 1 21.5 1C9.90202 1 0.5 10.1782 0.5 21.5C0.5 32.8218 9.90202 42 21.5 42Z" stroke="white" stroke-width="0.86" stroke-miterlimit="10"/>
</g>
</g>
</g>
<path id="Vector_2" d="M20.4235 29.2182L19.3279 28.1117C17.5298 26.3179 15.7346 24.5278 13.9423 22.7414C13.8502 22.6493 13.859 22.5924 13.916 22.4916C14.774 21.0496 15.7308 19.6689 16.7797 18.3592C17.7654 17.0889 18.8442 15.8936 20.0072 14.7834C21.7599 13.0725 23.7529 11.6265 25.9231 10.491C26.1115 10.3924 26.3087 10.3092 26.4928 10.2018C26.5393 10.1694 26.5966 10.1564 26.6526 10.1654C26.7086 10.1744 26.7589 10.2047 26.793 10.25C27.0559 10.5086 27.3298 10.7561 27.5905 11.0147C29.3434 12.7544 31.0904 14.4941 32.8316 16.2339C32.8632 16.2556 32.8851 16.2889 32.8924 16.3266C32.8998 16.3643 32.8921 16.4033 32.871 16.4354C31.9622 18.3355 30.8118 20.1104 29.4486 21.7159C28.4346 22.9023 27.3362 24.0139 26.1619 25.042C24.5602 26.4409 22.855 27.7168 21.0611 28.8589C20.877 28.9772 20.682 29.078 20.4936 29.1875L20.4235 29.2182ZM30.9297 16.1835C30.9297 15.7058 30.5945 15.4407 30.2352 15.5261C30.1305 15.5629 30.0345 15.6208 29.9531 15.6961C29.8717 15.7715 29.8066 15.8628 29.7619 15.9643C29.0936 17.1078 28.343 18.2012 27.516 19.2356C26.7049 20.2318 25.821 21.1663 24.8714 22.0315C24.5602 22.3163 24.236 22.588 23.9292 22.8794C23.8206 22.978 23.7553 23.1155 23.7475 23.2619C23.7397 23.4084 23.79 23.5521 23.8876 23.6616C23.9314 23.7225 23.9876 23.7735 24.0525 23.8113C24.1173 23.849 24.1894 23.8727 24.264 23.8808C24.3386 23.8888 24.4141 23.8811 24.4855 23.858C24.5569 23.835 24.6227 23.7972 24.6786 23.7471C24.8977 23.5849 25.1036 23.4184 25.303 23.2387C26.3957 22.2645 27.4124 21.2082 28.3442 20.0792C29.2381 19.0063 30.0344 17.8558 30.7238 16.6414C30.801 16.4927 30.8697 16.3399 30.9297 16.1835Z" fill="white"/>
<path id="Vector_3" d="M15.4937 29.9104C15.4586 30.7343 15.1453 31.4223 14.4332 31.8561C13.8405 32.2171 13.225 32.5391 12.5905 32.8202C11.5147 33.2978 10.4191 33.7317 9.32797 34.1809C9.18618 34.2373 9.03949 34.2806 8.88976 34.3101C8.71009 34.3496 8.61368 34.2488 8.67065 34.0757C8.85908 33.5411 9.03656 33.0042 9.26005 32.485C9.69826 31.4376 10.1825 30.399 10.6601 29.3627C10.8531 28.9086 11.1262 28.4929 11.4665 28.1357C11.859 27.748 12.3872 27.5286 12.9389 27.5243C13.477 27.4769 14.0147 27.6187 14.4595 27.9253C14.7796 28.1479 15.0409 28.4448 15.221 28.7905C15.4011 29.1363 15.4947 29.5206 15.4937 29.9104Z" fill="white"/>
<path id="Vector_4" d="M16.5164 16.7882C16.3871 16.9482 16.26 17.1103 16.1307 17.2724C15.0528 18.6181 14.0492 20.0218 13.1246 21.4771C12.9252 21.7926 12.9186 21.7882 12.5812 21.6349C11.9599 21.3602 11.2884 21.2177 10.6092 21.2164C9.88978 21.1936 9.17056 21.2673 8.4707 21.4355C8.6197 21.2514 8.74021 21.0915 8.86948 20.9425C9.70384 19.9388 10.6778 19.06 11.7617 18.3329C12.8576 17.6198 14.0794 17.1223 15.3617 16.8671C15.7319 16.7948 16.1154 16.7838 16.4923 16.7422L16.5164 16.7882Z" fill="white"/>
<path id="Vector_5" d="M26.1399 26.6436C26.1901 26.9269 26.1781 27.2177 26.1049 27.4959C25.7611 29.4018 24.8853 31.1717 23.5786 32.6011C23.0143 33.2516 22.3949 33.852 21.7271 34.3956L21.5869 34.5008C21.6219 34.2203 21.657 33.964 21.6855 33.7054C21.795 32.7172 21.8367 31.7334 21.4927 30.7715C21.4399 30.6164 21.377 30.4649 21.3042 30.318C21.2363 30.1909 21.2714 30.1339 21.3809 30.0594C22.1588 29.5424 22.9432 29.0362 23.7013 28.4928C24.4594 27.9494 25.235 27.3294 26.0041 26.74C26.0457 26.7093 26.0874 26.6852 26.1399 26.6436Z" fill="white"/>
<path id="Vector_6" d="M27.9297 9.61236C27.9297 9.61236 31.0805 8.29771 34.0888 8.53215C34.2035 8.53699 34.3122 8.58472 34.3933 8.66587C34.4745 8.74703 34.5222 8.8557 34.527 8.97037C34.5525 11.0847 34.1809 13.1851 33.4315 15.1624L27.9297 9.61236Z" fill="white"/>
</g>
<defs>
<linearGradient id="paint0_linear_1242_5247" x1="0.5" y1="5.1" x2="45.213" y2="10.1981" gradientUnits="userSpaceOnUse">
<stop stop-color="#0F8CFF"/>
<stop offset="1" stop-color="#0F6EFF"/>
</linearGradient>
<clipPath id="clip0_1242_5247">
<rect width="43" height="43" fill="white"/>
</clipPath>
</defs>
</svg>
